<svg xmlns="http://www.w3.org/2000/svg" fill="none" viewBox="0 0 14 14" height="14" width="14" id="Texture--Streamline-Flex.svg"><desc>Texture Streamline Icon: https://streamlinehq.com</desc><g id="Texture--Streamline-Flex.svg"><path id="Subtract" fill="#000000" fill-rule="evenodd" d="M8.878 0.331A23.637 23.637 0 0 0 7 0.25c-1.148 0 -2.269 0.105 -3.343 0.225A3.632 3.632 0 0 0 0.463 3.678a45.74 45.74 0 0 0 -0.144 1.56L8.878 0.331ZM0.252 6.706 0.25 7c0 1.016 0.078 2.011 0.176 2.972l12.851 -7.299a3.65 3.65 0 0 0 -2.341 -2.08L0.35 6.66a0.63 0.63 0 0 1 -0.098 0.045Zm13.314 -2.76L0.694 11.258a3.647 3.647 0 0 0 2.5 2.186l10.527 -6.13a0.592 0.592 0 0 1 0.027 -0.014l0.002 -0.3c0 -1.045 -0.083 -2.067 -0.184 -3.053Zm0.114 4.838L5.27 13.68c0.568 0.043 1.145 0.07 1.73 0.07 1.148 0 2.269 -0.105 3.343 -0.225a3.632 3.632 0 0 0 3.194 -3.203 45.97 45.97 0 0 0 0.143 -1.538Z" clip-rule="evenodd" stroke-width="1"></path></g></svg>